<!--?xml version="1.0" encoding="utf-8"?-->
<!-- Svg Vector Icons : http://www.onlinewebfonts.com/icon -->

<svg version="1.1" xmlns="http://www.w3.org/2000/svg" xmlns:xlink="http://www.w3.org/1999/xlink" x="0px" y="0px" viewBox="0 0 256 256" enable-background="new 0 0 256 256" xml:space="preserve">
<metadata> Svg Vector Icons : http://www.onlinewebfonts.com/icon </metadata>
<g><g><g><path fill="#ffffff" data-title="Layer 0" xs="0" d="M22.6,60.4c-5,1.4-9.1,4.9-11.5,9.7C10.2,72,10,73.2,10,77.3c0,4.4,0.1,5.3,1.4,7.8c1.2,2.4,9.2,10.6,53.3,55c28.6,28.7,52.7,52.7,53.7,53.3c2.4,1.5,6.5,2.7,9.4,2.7c2.9,0,7-1.2,9.5-2.8c1-0.6,25.4-24.7,54.1-53.4c42.6-42.5,52.5-52.6,53.4-54.6c1-2.1,1.2-3.3,1.2-7.4c0-4.5-0.1-5.2-1.4-7.8c-1.8-3.5-4.9-6.4-8.6-8.2c-2.4-1.1-3.5-1.3-7.3-1.3c-8.1,0-4.3-3.2-55.5,47.9L128,153.5l-45.4-45.4C42,67.4,37,62.6,34.4,61.5C31,59.9,25.9,59.4,22.6,60.4z"/></g></g></g>
</svg>