<!--?xml version="1.0" encoding="utf-8"?-->
<!-- Svg Vector Icons : http://www.onlinewebfonts.com/icon -->

<svg version="1.1" xmlns="http://www.w3.org/2000/svg" xmlns:xlink="http://www.w3.org/1999/xlink" x="0px" y="0px" viewBox="0 0 256 256" enable-background="new 0 0 256 256" xml:space="preserve">
<metadata> Svg Vector Icons : http://www.onlinewebfonts.com/icon </metadata>
<g><g><g><g><path fill="#FFFFFF" data-title="Layer 0" xs="0" d="M10 213.8a26.8 26.8 0 1 0 53.6 0a26.8 26.8 0 1 0 -53.6 0z"/><path fill="#FFFFFF" data-title="Layer 1" xs="1" d="M101.2 128a26.8 26.8 0 1 0 53.6 0a26.8 26.8 0 1 0 -53.6 0z"/><path fill="#FFFFFF" data-title="Layer 2" xs="2" d="M101.2 42.2a26.8 26.8 0 1 0 53.6 0a26.8 26.8 0 1 0 -53.6 0z"/><path fill="#FFFFFF" data-title="Layer 3" xs="3" d="M10 42.2a26.8 26.8 0 1 0 53.6 0a26.8 26.8 0 1 0 -53.6 0z"/><path fill="#FFFFFF" data-title="Layer 4" xs="4" d="M10 128a26.8 26.8 0 1 0 53.6 0a26.8 26.8 0 1 0 -53.6 0z"/><path fill="#FFFFFF" data-title="Layer 5" xs="5" d="M101.2 213.8a26.8 26.8 0 1 0 53.6 0a26.8 26.8 0 1 0 -53.6 0z"/><path fill="#FFFFFF" data-title="Layer 6" xs="6" d="M192.4 213.8a26.8 26.8 0 1 0 53.6 0a26.8 26.8 0 1 0 -53.6 0z"/><path fill="#FFFFFF" data-title="Layer 7" xs="7" d="M192.4 42.2a26.8 26.8 0 1 0 53.6 0a26.8 26.8 0 1 0 -53.6 0z"/><path fill="#FFFFFF" data-title="Layer 8" xs="8" d="M192.4 128a26.8 26.8 0 1 0 53.6 0a26.8 26.8 0 1 0 -53.6 0z"/></g></g><g></g><g></g><g></g><g></g><g></g><g></g><g></g><g></g><g></g><g></g><g></g><g></g><g></g><g></g><g></g></g></g>
</svg>