<svg xmlns="http://www.w3.org/2000/svg" width="36" height="36" fill="none"><path fill="#000" d="M17.401 29.027c6.09 0 11.027-4.937 11.027-11.027 0-6.09-4.937-11.027-11.027-11.027-6.09 0-11.027 4.937-11.027 11.027 0 6.09 4.937 11.027 11.027 11.027z"/><path fill="#fff" d="M15.844 22.207l-3.659-3.659 1.094-1.093 2.565 2.565 5.68-5.68 1.09 1.094-6.77 6.773z"/><path fill="#05944F" d="M1 18c0 9.056 7.34 16.397 16.397 16.397 9.037 0 16.37-7.314 16.398-16.35H35l-2.67-4.622-2.67 4.621h1.206c-.027 7.422-6.047 13.426-13.469 13.426-7.441 0-13.472-6.03-13.472-13.472 0-7.442 6.03-13.469 13.472-13.469h.043V1.603h-.043C8.341 1.603 1 8.943 1 18z"/></svg>