<svg xmlns="http://www.w3.org/2000/svg" width="36" height="36" fill="none"><path fill="#66D19E" d="M26.104 15.981v1.245c.657-.226 1.315-.377 2.05-.377v-1.17c-.697 0-1.393.076-2.05.302z"/><path fill="#05944F" d="M13.803 15.68H12.45l1.083 2.98h1.354l-1.083-2.98zM26.104 17.189v-1.246c-2.283.717-4.062 2.529-4.603 4.83h1.237c.465-1.622 1.741-2.943 3.366-3.584z"/><path fill="#66D19E" d="M7.808 20.585c-1.006 0-1.78.792-1.78 1.736 0 .98.813 1.736 1.78 1.736 1.005 0 1.78-.793 1.78-1.736.038-.944-.775-1.736-1.78-1.736zM28.154 20.585c-1.006 0-1.78.792-1.78 1.736 0 .98.813 1.736 1.78 1.736 1.005 0 1.779-.793 1.779-1.736 0-.944-.774-1.736-1.78-1.736z"/><path fill="#05944F" d="M28.386 22.924c-.078.038-.155.038-.232.038a.663.663 0 01-.62-.415L21.965 7h.774c.349 0 .62.189.735.49l5.3 14.642a.628.628 0 01-.387.792z"/><path fill="#05944F" d="M23.241 8.774l7.427.792c.387.038.619.415.503.793l-1.277 3.32c-.077.227-.31.378-.58.378l-3.83-.114-2.243-5.17z"/><path fill="#000" d="M19.528 8.245c-.348 0-.658-.264-.658-.603 0-.34.271-.642.658-.642h2.475l.426 1.245h-2.901zM15.97 21.68l-1.47-4.076h-.658c-.464 0-.89-.151-1.277-.378l-1.701-1.17a2.197 2.197 0 00-1.277-.377l-1.78.755-1.779-.755h-1.47a.767.767 0 00-.773.755v.528A6.561 6.561 0 001 22.321C1 26.019 4.094 29 7.846 29c3.327 0 6.112-2.34 6.73-5.396l1.393-1.925zm-2.592 1.848c-.542 2.49-2.824 4.34-5.532 4.34-3.133 0-5.647-2.49-5.647-5.51 0-1.471.619-2.83 1.586-3.849l4.023 3.812 5.57 1.207z"/><path fill="#05944F" d="M25.678 12.283c-.503-.453-1.238-.377-1.663.113l-7.543 8.944c-.232.264-.58.453-.967.453h-7.62c-.31 0-.58.264-.58.566 0 .301.232.528.541.566l8.162.83c.774.075 1.509-.227 1.973-.793l7.736-9.094c.387-.453.387-1.17-.039-1.585z"/><path fill="#66D19E" d="M12.681 12.434H11.29l1.16 3.245h1.354l-1.122-3.245zM9.626 17.83c0 .981-.813 1.736-1.78 1.736-1.005 0-1.779-.793-1.779-1.736v-2.15h3.597v2.15h-.038z"/><path fill="#000" d="M28.154 15.68v1.169c3.133 0 5.647 2.49 5.647 5.51 0 3.056-2.553 5.509-5.647 5.509-2.67 0-4.913-1.811-5.493-4.226-.116-.416-.155-.869-.155-1.321 0-.189 0-.378.039-.566.039-.34.116-.642.193-.982h-1.237a6.79 6.79 0 00-.155.869c-.039.226-.039.452-.039.679 0 .452.039.868.116 1.32.62 3.057 3.404 5.359 6.73 5.359C31.945 29 35 26.019 35 22.32c0-3.66-3.056-6.64-6.846-6.64zM14.151 12.132h-3.365c-.541 0-.967.415-.967.944 0 .528.426.943.967.943h.619c.232 0 .503-.076.696-.151l1.238-.604c.232-.113.464-.15.696-.15h1.006a.894.894 0 00-.89-.982z"/></svg>