<svg xmlns="http://www.w3.org/2000/svg" width="36" height="36" fill="none"><path fill="#000" d="M23.687 16.431H12.344L3.434 1h11.344l8.91 15.431z"/><path fill="#05944F" d="M34.992 15.249v17.665a2.073 2.073 0 01-2.07 2.078H3.078A2.08 2.08 0 011 32.914V15.249c0-1.144.935-2.079 2.079-2.079H32.92c1.144 0 2.071.935 2.071 2.079zM34.699 14.028z"/><path fill="#66D19E" d="M10.265 23.393l-.008-.007.008.008z"/><path fill="#000" d="M16.54 18.294H4.956v11.583H16.54V18.294z"/><path fill="#fff" d="M10.752 23.664a1.97 1.97 0 100-3.94 1.97 1.97 0 000 3.94zM13.997 27.682h-6.49v-1.135a2.12 2.12 0 012.117-2.118h2.264a2.12 2.12 0 012.117 2.118v1.135h-.008zM31.044 19.043H19.422v3.09h11.622v-3.09zM31.044 22.575H19.422v3.09h11.622v-3.09zM25.248 26.106h-5.826v3.09h5.826v-3.09z"/><path fill="#66D19E" d="M21.215 1h11.343l-8.91 15.431-11.335-.023L21.215 1z"/></svg>