<svg xmlns="http://www.w3.org/2000/svg" width="36" height="36" fill="none"><path fill="#05944F" d="M31.69 4.332a11.317 11.317 0 00-16.033 0c-3.71 3.718-4.3 9.364-1.797 13.71l-.007.003L23.673 35l9.82-16.955-.01-.004c2.503-4.349 1.912-9.995-1.793-13.71z"/><path fill="#000" d="M23.67 15.857a3.485 3.485 0 003.48-3.49 3.485 3.485 0 00-3.48-3.489 3.485 3.485 0 00-3.482 3.49 3.485 3.485 0 003.481 3.489z"/><path fill="#66D19E" d="M20.35 4.332c-4.427-4.443-11.605-4.443-16.036 0-3.709 3.717-4.3 9.364-1.797 13.71l-.007.003L12.33 35l9.821-16.955-.008-.004c2.504-4.349 1.917-9.995-1.792-13.71z"/><path fill="#fff" d="M12.334 15.857a3.485 3.485 0 003.481-3.49 3.485 3.485 0 00-3.48-3.489 3.485 3.485 0 00-3.482 3.49 3.485 3.485 0 003.481 3.489z"/></svg>