<svg xmlns="http://www.w3.org/2000/svg" width="36" height="36" fill="none"><path fill="#05944F" d="M31.91 25.044H8.92L1 33V6.105C1 4.397 2.39 3 4.09 3h27.82C33.61 3 35 4.397 35 6.105v15.834c0 1.708-1.39 3.105-3.09 3.105z"/><path fill="#fff" d="M7.375 16.545V9.636h1.043v2.989h3.4V9.636h1.043v6.909h-1.043v-3.028h-3.4v3.028H7.375zM13.634 14.022c0-.35.077-.699.193-1.01.116-.31.31-.581.541-.853.232-.233.502-.427.812-.582.309-.155.656-.194 1.004-.194s.695.077 1.005.194c.309.116.58.31.811.543.232.233.386.505.502.815.116.31.193.66.193 1.048v.31H14.6c.039.195.116.389.193.583.077.194.232.31.387.465.154.117.309.233.502.31.193.079.386.117.58.117.579 0 1.081-.232 1.429-.737l.734.543c-.232.35-.54.582-.927.777-.387.194-.773.271-1.237.271-.386 0-.734-.078-1.043-.194a2.454 2.454 0 01-.85-.543 2.765 2.765 0 01-.58-.854 3.694 3.694 0 01-.154-1.01zm2.55-1.747c-.386 0-.695.117-.966.35-.27.233-.463.543-.54.931h3.052a1.624 1.624 0 00-.541-.931 1.583 1.583 0 00-1.005-.35zM19.507 16.545V9.636h1.004v6.909h-1.004zM21.439 16.545V9.636h1.004v6.909H21.44zM28.625 14.022c0 .35-.077.698-.193 1.009-.155.31-.348.582-.58.854-.232.233-.54.427-.85.582-.309.155-.695.194-1.043.194s-.734-.078-1.043-.194c-.31-.155-.618-.31-.85-.582a2.765 2.765 0 01-.58-.854c-.154-.35-.193-.66-.193-1.01 0-.348.078-.698.193-1.008.155-.31.348-.582.58-.854.232-.233.54-.427.85-.582.309-.155.695-.194 1.043-.194s.734.077 1.043.194c.31.155.619.31.85.582.232.233.425.505.58.854.116.31.193.66.193 1.009zm-1.005 0c0-.233-.038-.466-.115-.699a1.63 1.63 0 00-.348-.543c-.155-.155-.348-.272-.541-.388a1.796 1.796 0 00-.657-.117c-.232 0-.463.04-.657.117a1.28 1.28 0 00-.54.388c-.155.155-.271.35-.348.543a1.887 1.887 0 00-.116.699c0 .271.038.466.116.698.077.233.193.389.347.544.155.155.348.272.541.388.194.078.425.116.657.116.232 0 .464-.039.657-.116.193-.078.386-.194.54-.388.155-.155.271-.35.349-.543.077-.195.116-.466.116-.7z"/><path fill="#000" d="M28.625 18.718H7.375v1.164h21.25v-1.164z"/></svg>