<svg xmlns="http://www.w3.org/2000/svg" width="36" height="36" fill="none"><path fill="#000" d="M9.543 31.02v2.086c0 1.044.857 1.855 1.87 1.855h17.41c1.05 0 1.869-.85 1.869-1.855V31.02H9.543zM30.732 4.94V2.856A1.862 1.862 0 0028.862 1H11.454c-1.052 0-1.87.85-1.87 1.855V4.94h21.149z"/><path fill="#05944F" d="M30.692 4.94H9.543v26.041h21.149V4.942z"/><path fill="#fff" d="M20.137 34.072a.97.97 0 00.974-.965.97.97 0 00-.974-.966.97.97 0 00-.974.966.97.97 0 00.974.965z"/><path fill="#66D19E" d="M32.328 13.673a2.293 2.293 0 01-3.233 0 2.25 2.25 0 010-3.207 2.293 2.293 0 013.233 0 2.25 2.25 0 010 3.207z"/><path fill="#66D19E" d="M32.328 18.233a2.293 2.293 0 01-3.233 0 2.25 2.25 0 010-3.207 2.293 2.293 0 013.233 0 2.25 2.25 0 010 3.207z"/><path fill="#66D19E" d="M32.328 22.792a2.293 2.293 0 01-3.233 0 2.25 2.25 0 010-3.207 2.293 2.293 0 013.233 0 2.25 2.25 0 010 3.207z"/><path fill="#66D19E" d="M32.328 27.351a2.293 2.293 0 01-3.233 0 2.25 2.25 0 010-3.207 2.293 2.293 0 013.233 0 2.25 2.25 0 010 3.207zM13.789 28.934V35H3V20.666c0-1.661.545-3.284 1.519-4.598l4.79-6.49c.312-.387.857-.503 1.286-.194a3.798 3.798 0 011.012 4.83l-1.48 2.666v6.143l.156.077c1.09.58 1.987 1.391 2.61 2.395.545 1.044.896 2.203.896 3.44z"/><path fill="#fff" d="M25.278 19.545l-5.141 6.646-5.141-6.646h3.038V9.77h4.206v9.775h3.038z"/></svg>