<svg xmlns="http://www.w3.org/2000/svg" width="36" height="36" fill="none"><path fill="#05944F" d="M27.62 7.26H1V35h26.62V7.26z"/><path fill="#66D19E" d="M35 19.43H13.286V35H35V19.43z"/><path fill="#fff" d="M14.29 14.987a6.134 6.134 0 00-6.142 6.143c0 3.052 2.202 5.564 5.1 6.027V19.43h4.482v-3.36c-.966-.658-2.125-1.083-3.44-1.083z"/><path fill="#000" d="M20.705 13.171v6.26h-2.937v-3.362l2.937-2.898zM30.518 16.069v3.361h-2.936v-6.259l2.936 2.898z"/><path fill="#05944F" d="M19.236 25.612h9.814a4.914 4.914 0 01-4.907 4.906h-.038c-2.666 0-4.869-2.202-4.869-4.906zM17.762 3.898V1h-6.877v2.898h6.877z"/><path fill="#66D19E" d="M27.588 16.08v-2.897h-6.877v2.897h6.877zM10.852 1.002V7.26H7.916V3.899l2.936-2.897zM20.705 3.9v3.36h-2.937V1.003l2.937 2.897z"/></svg>