<svg width="24" height="24" viewBox="0 0 24 24" fill="none" xmlns="http://www.w3.org/2000/svg">
<path d="M21.83 4.16L12 9.07L10.88 8.51C10.95 8.18 11 7.85 11 7.5C11 5.02 8.98 3 6.5 3C4.02 3 2 5.02 2 7.5C2 9.98 4.02 12 6.5 12C4.02 12 2 14.02 2 16.5C2 18.98 4.02 21 6.5 21C8.98 21 11 18.98 11 16.5C11 16.15 10.95 15.82 10.88 15.49L12 14.93L21.83 19.84L23.17 17.16L12.85 12L23.17 6.84L21.83 4.16ZM5 7.5C5 6.67 5.67 6 6.5 6C7.33 6 8 6.67 8 7.5C8 8.33 7.33 9 6.5 9C5.67 9 5 8.33 5 7.5ZM6.5 18C5.67 18 5 17.33 5 16.5C5 15.67 5.67 15 6.5 15C7.33 15 8 15.67 8 16.5C8 17.33 7.33 18 6.5 18Z" fill="black"/>
</svg>
